<svg xmlns="http://www.w3.org/2000/svg" viewBox="0 0 700 1200" width="100%" height="100%">

    <defs>
      <style>
        @import url('https://fonts.googleapis.com/css2?family=EB+Garamond:wght@400;600&amp;display=swap');
        text {
            font-family: 'EB Garamond', serif;
        }
      </style>
    </defs>

    <rect width="700" height="1200" fill="#09090b"/>

    <rect x="25" y="25" width="650" height="1150" rx="15" fill="none" stroke="#5a805b" stroke-width="3"/>
    <rect x="40" y="40" width="620" height="1120" rx="10" fill="none" stroke="#fafafa" stroke-width="1" stroke-dasharray="4,4"/>

    <!-- Corner ornaments -->
    <circle cx="50" cy="50" r="10" fill="none" stroke="#5a805b" stroke-width="2"/>
    <circle cx="650" cy="50" r="10" fill="none" stroke="#5a805b" stroke-width="2"/>
    <circle cx="50" cy="1150" r="10" fill="none" stroke="#5a805b" stroke-width="2"/>
    <circle cx="650" cy="1150" r="10" fill="none" stroke="#5a805b" stroke-width="2"/>

    <!-- Inner corner arcs -->
    <path d="M 40 80 A 40 40 0 0 1 80 40" fill="none" stroke="#fafafa" stroke-width="1" stroke-dasharray="2,2"/>
    <path d="M 620 40 A 40 40 0 0 1 660 80" fill="none" stroke="#fafafa" stroke-width="1" stroke-dasharray="2,2"/>
    <path d="M 40 1120 A 40 40 0 0 0 80 1160" fill="none" stroke="#fafafa" stroke-width="1" stroke-dasharray="2,2"/>
    <path d="M 620 1160 A 40 40 0 0 0 660 1120" fill="none" stroke="#fafafa" stroke-width="1" stroke-dasharray="2,2"/>


    <g fill="#fafafa">
        <circle cx="350" cy="80" r="4"/>
        <path d="M 330 80 A 6 6 0 1 1 330 79 Z" fill="none" stroke="#fafafa" stroke-width="1"/>
        <path d="M 370 80 A 6 6 0 1 1 370 79 Z" fill="none" stroke="#fafafa" stroke-width="1"/>
        <circle cx="310" cy="80" r="2"/>
        <circle cx="390" cy="80" r="2"/>

        <circle cx="350" cy="1120" r="4"/>
        <path d="M 330 1120 A 6 6 0 1 1 330 1119 Z" fill="none" stroke="#fafafa" stroke-width="1"/>
        <path d="M 370 1120 A 6 6 0 1 1 370 1119 Z" fill="none" stroke="#fafafa" stroke-width="1"/>
        <circle cx="310" cy="1120" r="2"/>
        <circle cx="390" cy="1120" r="2"/>
    </g>


    <text x="350" y="140" text-anchor="middle" fill="#fafafa" font-size="32" font-weight="600" letter-spacing="4">XI</text>
    <text x="350" y="1080" text-anchor="middle" fill="#5a805b" font-size="42" font-weight="600" letter-spacing="6">JUSTICE</text>

    <g transform="translate(0, 150)">
        <path d="M 350 280 L 430 440 L 270 440 Z" fill="none" stroke="#5a805b" stroke-width="3"/><path d="M 350 480 L 430 320 L 270 320 Z" fill="none" stroke="#5a805b" stroke-width="3"/>
    <path d="M 310 380 Q 350 355 390 380 Q 350 405 310 380 Z" fill="none" stroke="#fafafa" stroke-width="2"/>
    <circle cx="350" cy="380" r="12.5" fill="none" stroke="#fafafa" stroke-width="2"/>
    <circle cx="350" cy="380" r="5.0" fill="#fafafa"/>
    <path d="M 250 265 Q 250 280 265 280 Q 250 280 250 295 Q 250 280 235 280 Q 250 280 250 265 Z" fill="#fafafa"/><path d="M 450 465 Q 450 480 465 480 Q 450 480 450 495 Q 450 480 435 480 Q 450 480 450 465 Z" fill="#fafafa"/>
    </g>
</svg>