<svg xmlns="http://www.w3.org/2000/svg" viewBox="0 0 700 1200" width="100%" height="100%">

    <defs>
      <style>
        @import url('https://fonts.googleapis.com/css2?family=EB+Garamond:wght@400;600&amp;display=swap');
        text {
            font-family: 'EB Garamond', serif;
        }
      </style>
    </defs>

    <rect width="700" height="1200" fill="#09090b"/>

    <rect x="25" y="25" width="650" height="1150" rx="15" fill="none" stroke="#5a805b" stroke-width="3"/>
    <rect x="40" y="40" width="620" height="1120" rx="10" fill="none" stroke="#fafafa" stroke-width="1" stroke-dasharray="4,4"/>

    <!-- Corner ornaments -->
    <circle cx="50" cy="50" r="10" fill="none" stroke="#5a805b" stroke-width="2"/>
    <circle cx="650" cy="50" r="10" fill="none" stroke="#5a805b" stroke-width="2"/>
    <circle cx="50" cy="1150" r="10" fill="none" stroke="#5a805b" stroke-width="2"/>
    <circle cx="650" cy="1150" r="10" fill="none" stroke="#5a805b" stroke-width="2"/>

    <!-- Inner corner arcs -->
    <path d="M 40 80 A 40 40 0 0 1 80 40" fill="none" stroke="#fafafa" stroke-width="1" stroke-dasharray="2,2"/>
    <path d="M 620 40 A 40 40 0 0 1 660 80" fill="none" stroke="#fafafa" stroke-width="1" stroke-dasharray="2,2"/>
    <path d="M 40 1120 A 40 40 0 0 0 80 1160" fill="none" stroke="#fafafa" stroke-width="1" stroke-dasharray="2,2"/>
    <path d="M 620 1160 A 40 40 0 0 0 660 1120" fill="none" stroke="#fafafa" stroke-width="1" stroke-dasharray="2,2"/>


    <g fill="#fafafa">
        <circle cx="350" cy="80" r="4"/>
        <path d="M 330 80 A 6 6 0 1 1 330 79 Z" fill="none" stroke="#fafafa" stroke-width="1"/>
        <path d="M 370 80 A 6 6 0 1 1 370 79 Z" fill="none" stroke="#fafafa" stroke-width="1"/>
        <circle cx="310" cy="80" r="2"/>
        <circle cx="390" cy="80" r="2"/>

        <circle cx="350" cy="1120" r="4"/>
        <path d="M 330 1120 A 6 6 0 1 1 330 1119 Z" fill="none" stroke="#fafafa" stroke-width="1"/>
        <path d="M 370 1120 A 6 6 0 1 1 370 1119 Z" fill="none" stroke="#fafafa" stroke-width="1"/>
        <circle cx="310" cy="1120" r="2"/>
        <circle cx="390" cy="1120" r="2"/>
    </g>


    <text x="350" y="140" text-anchor="middle" fill="#fafafa" font-size="32" font-weight="600" letter-spacing="4">XXI</text>
    <text x="350" y="1080" text-anchor="middle" fill="#5a805b" font-size="42" font-weight="600" letter-spacing="6">THE WORLD</text>

    <g transform="translate(0, 150)">
        <ellipse cx="350" cy="380" rx="70" ry="120" fill="none" stroke="#5a805b" stroke-width="6"/><ellipse cx="350" cy="380" rx="50" ry="100" fill="none" stroke="#fafafa" stroke-width="2" stroke-dasharray="4,4"/><circle cx="350" cy="380" r="20" fill="none" stroke="#fafafa" stroke-width="3"/><path d="M 250 220 Q 250 240 270 240 Q 250 240 250 260 Q 250 240 230 240 Q 250 240 250 220 Z" fill="#fafafa"/><path d="M 450 220 Q 450 240 470 240 Q 450 240 450 260 Q 450 240 430 240 Q 450 240 450 220 Z" fill="#fafafa"/><path d="M 250 500 Q 250 520 270 520 Q 250 520 250 540 Q 250 520 230 520 Q 250 520 250 500 Z" fill="#fafafa"/><path d="M 450 500 Q 450 520 470 520 Q 450 520 450 540 Q 450 520 430 520 Q 450 520 450 500 Z" fill="#fafafa"/>
    </g>
</svg>